<svg xmlns="http://www.w3.org/2000/svg" viewBox="0 0 900 1024" role="img" aria-labelledby="title desc">
  <title id="title">Mock portrait placeholder</title>
  <desc id="desc">An abstract warm-toned portrait placeholder with the letter M.</desc>
  <defs>
    <linearGradient id="bg" x1="0%" y1="0%" x2="100%" y2="100%">
      <stop offset="0%" stop-color="#f3d8aa"/>
      <stop offset="55%" stop-color="#d99a67"/>
      <stop offset="100%" stop-color="#8e3d31"/>
    </linearGradient>
    <linearGradient id="shirt" x1="0%" y1="0%" x2="100%" y2="100%">
      <stop offset="0%" stop-color="#7a3027"/>
      <stop offset="100%" stop-color="#472018"/>
    </linearGradient>
  </defs>
  <rect width="900" height="1024" rx="48" fill="url(#bg)"/>
  <circle cx="450" cy="312" r="162" fill="#f5ddbf"/>
  <path d="M231 104c58 37 120 56 210 48 79-6 151 9 228 54-20 85-92 132-183 124-103-8-180-1-255 39-43-88-42-184 0-265Z" fill="#3e2219" opacity=".92"/>
  <path d="M172 863c36-194 143-292 278-292s242 98 278 292v161H172V863Z" fill="url(#shirt)"/>
  <circle cx="389" cy="301" r="15" fill="#3a2218"/>
  <circle cx="521" cy="301" r="15" fill="#3a2218"/>
  <path d="M391 401c35 24 82 24 118 0" fill="none" stroke="#7f4a35" stroke-linecap="round" stroke-width="15"/>
  <text x="450" y="918" text-anchor="middle" font-family="Georgia, serif" font-size="178" fill="#fff6e9" opacity=".92">M</text>
</svg>
